<?xml version="1.0" encoding="iso-8859-1"?>
<!-- Generator: Adobe Illustrator 19.0.0, SVG Export Plug-In . SVG Version: 6.00 Build 0)  -->
<svg version="1.1" id="Layer_1" xmlns="http://www.w3.org/2000/svg" xmlns:xlink="http://www.w3.org/1999/xlink" x="0px" y="0px"
	 viewBox="0 0 248.934 248.934" style="enable-background:new 0 0 248.934 248.934;" xml:space="preserve">
<g>
	<g>
		<g>
			<g id="XMLID_18_">
				<g>
					<g>
						<path style="fill:#F47C6D;" d="M231.37,102.446c7.089,34.752-2.793,72.328-29.676,99.24
							c-15.919,15.889-35.533,25.861-56.078,29.886l29.886-29.886c2.974-3.004,2.974-7.839,0-10.843
							c-3.004-3.004-7.87-3.004-10.843,0l-42.712,42.712c-27.123-0.631-54.065-11.234-74.7-31.869
							c-7.509-7.539-13.697-15.889-18.562-24.81l60.553-60.523c3.004-3.004,3.004-7.87,0-10.843c-2.974-3.004-7.839-3.004-10.843,0
							l-56.468,56.468C7.87,123.292,16.28,78.207,47.247,47.24c42.592-42.562,111.855-42.562,154.447,0
							c11.264,11.264,19.494,24.42,24.81,38.417l-59.142,59.142c-3.004,2.974-3.004,7.839,0,10.813
							c3.004,3.004,7.839,3.004,10.843,0L231.37,102.446z M168.264,83.373c3.004-3.004,3.004-7.839,0-10.843
							c-3.004-2.974-7.839-2.974-10.843,0l-45.595,45.625c-3.004,2.974-3.004,7.839,0,10.813c3.004,3.004,7.839,3.004,10.843,0
							L168.264,83.373z"/>
					</g>
					<g>
						<path style="fill:#2D213F;" d="M212.507,36.427c48.569,48.539,48.569,127.534,0,176.103
							c-48.539,48.539-127.534,48.539-176.103,0c-48.539-48.569-48.539-127.564,0-176.103
							C84.973-12.142,163.968-12.142,212.507,36.427z M201.694,201.687c26.883-26.913,36.764-64.488,29.676-99.24l-53.164,53.164
							c-3.004,3.004-7.839,3.004-10.843,0c-3.004-2.974-3.004-7.839,0-10.813l59.142-59.142
							c-5.316-13.997-13.546-27.153-24.81-38.416C159.103,4.678,89.84,4.678,47.248,47.24C16.28,78.207,7.87,123.292,21.927,161.979
							l56.468-56.468c3.004-3.004,7.87-3.004,10.843,0c3.004,2.974,3.004,7.839,0,10.843L28.685,176.88
							c4.866,8.921,11.053,17.271,18.562,24.81c20.635,20.635,47.578,31.238,74.7,31.869l42.712-42.712
							c2.974-3.004,7.839-3.004,10.843,0c2.974,3.004,2.974,7.839,0,10.843l-29.886,29.886
							C166.161,227.548,185.775,217.579,201.694,201.687z"/>
					</g>
					<g>
						<path style="fill:#2D213F;" d="M168.264,72.53c3.004,3.004,3.004,7.839,0,10.843l-45.595,45.595
							c-3.004,3.004-7.839,3.004-10.843,0c-3.004-2.974-3.004-7.839,0-10.813l45.595-45.625
							C160.424,69.557,165.26,69.557,168.264,72.53z"/>
					</g>
				</g>
			</g>
		</g>
		<g>
			<path style="fill:#EF685E;" d="M49.055,45.522l89.055,46.331l19.31-19.322c3.19-3.16,8.452-2.962,11.384,0.592
				c2.541,3.082,2.021,7.689-0.805,10.513L152.365,99.27l1.108,0.577c13.462,7.004,22.242,20.584,23.101,35.734l0,0l49.929-49.923
				c-5.316-13.997-13.546-27.153-24.81-38.416C159.694,5.27,91.776,4.72,49.055,45.522z"/>
			<path style="fill:#EF685E;" d="M231.37,102.446l-53.164,53.164c-0.147,0.147-0.315,0.252-0.472,0.384l3.499,61.722
				c7.278-4.43,14.165-9.75,20.461-16.03C228.577,174.777,238.459,137.202,231.37,102.446z"/>
		</g>
	</g>
</g>
<g>
</g>
<g>
</g>
<g>
</g>
<g>
</g>
<g>
</g>
<g>
</g>
<g>
</g>
<g>
</g>
<g>
</g>
<g>
</g>
<g>
</g>
<g>
</g>
<g>
</g>
<g>
</g>
<g>
</g>
</svg>
