<?xml version="1.0" standalone="no"?>
<!DOCTYPE svg PUBLIC "-//W3C//DTD SVG 20010904//EN"
 "http://www.w3.org/TR/2001/REC-SVG-20010904/DTD/svg10.dtd">
<svg version="1.0" xmlns="http://www.w3.org/2000/svg"
 width="700.000000pt" height="700.000000pt" viewBox="0 0 700.000000 700.000000"
 preserveAspectRatio="xMidYMid meet">
<metadata>
Created by potrace 1.14, written by Peter Selinger 2001-2017
</metadata>
<g transform="translate(0.000000,700.000000) scale(0.100000,-0.100000)"
fill="#000000" stroke="none">
<path d="M3285 6994 c-22 -2 -92 -9 -155 -15 -382 -36 -794 -154 -1165 -334
-920 -447 -1606 -1288 -1854 -2273 -78 -306 -106 -540 -106 -872 0 -332 28
-566 106 -872 218 -867 780 -1632 1547 -2105 443 -274 924 -438 1477 -505 129
-16 601 -16 730 0 364 44 688 127 989 253 711 298 1299 820 1687 1494 234 408
379 857 441 1370 16 129 16 601 0 730 -65 538 -225 1014 -481 1438 -565 933
-1506 1541 -2591 1673 -119 14 -539 27 -625 18z m-861 -1820 c567 -295 1127
-587 1244 -648 l212 -111 -385 -385 c-261 -262 -389 -397 -400 -422 -32 -79
-10 -182 51 -240 64 -60 169 -76 247 -37 27 14 191 169 468 446 l426 425 49
-25 c146 -75 320 -233 416 -378 100 -151 153 -277 188 -448 33 -163 41 -143
-129 -316 -153 -155 -171 -182 -171 -259 0 -156 165 -261 309 -196 24 11 45
19 46 18 4 -6 97 -1719 94 -1722 -2 -2 -35 -21 -74 -43 -160 -92 -336 -170
-539 -240 -96 -32 -322 -93 -348 -93 -7 0 177 190 409 422 316 317 427 434
442 468 29 64 27 125 -6 191 -47 92 -149 136 -253 109 -41 -10 -100 -66 -665
-631 l-620 -619 -75 0 c-103 0 -309 25 -464 56 -845 168 -1572 679 -2021 1420
l-66 108 865 866 c475 476 872 881 882 900 24 49 23 134 -4 186 -55 108 -175
152 -282 103 -35 -15 -226 -201 -847 -821 -441 -441 -804 -800 -806 -798 -23
24 -117 385 -141 541 -54 341 -50 732 10 1059 107 582 386 1128 793 1552 51
54 98 98 104 98 5 0 474 -241 1041 -536z"/>
</g>
</svg>
